<svg height="480pt" viewBox="0 -108 480.07029 480" width="480pt" xmlns="http://www.w3.org/2000/svg" xmlns:xlink="http://www.w3.org/1999/xlink"><linearGradient id="a" gradientUnits="userSpaceOnUse" x1="101.902325" x2="379.774325" y1="311.795145" y2="33.923145"><stop offset="0" stop-color="#41dfd0"/><stop offset="1" stop-color="#ee83ef"/></linearGradient><path d="m112.070312 216.035156c0 8.835938-7.164062 16-16 16-8.835937 0-16-7.164062-16-16 0-8.835937 7.164063-16 16-16 8.835938 0 16 7.164063 16 16zm272-16c-8.835937 0-16 7.164063-16 16 0 8.835938 7.164063 16 16 16 8.835938 0 16-7.164062 16-16 0-8.835937-7.164062-16-16-16zm87.953126-17.792968c7.445312 6.601562 10.023437 17.121093 6.476562 26.414062s-12.480469 15.417969-22.429688 15.378906h-24.71875c-3.882812 23.085938-23.871093 39.992188-47.28125 39.992188-23.410156 0-43.398437-16.90625-47.28125-39.992188h-193.4375c-3.882812 23.085938-23.871093 39.992188-47.28125 39.992188-23.410156 0-43.398437-16.90625-47.28125-39.992188h-24.71875c-12.980468.070313-23.652343-10.21875-24.0585932-23.191406-.4062498-12.972656 9.5976562-23.910156 22.5546872-24.65625v-48.152344c0-17.671875 14.328125-32 32-32h57.503906l33.601563-44.800781c1.507813-2.015625 3.878906-3.199219 6.398437-3.199219h48v-24c0-13.253906 10.746094-23.9999998 24-23.9999998h88c13.253907 0 24 10.7460938 24 23.9999998v12.992188l51.632813 59.007812h2.863281c.863282 0 1.71875.136719 2.535156.40625l72 24c3.191407 1.066406 5.375 4.015625 5.464844 7.378906zm-39.953126-38.207032h22.929688l-.273438-10.183594-22.65625-7.550781zm-40 24.71875c6.601563 1.101563 12.898438 3.582032 18.480469 7.28125h45.304688l-.433594-16h-23.351563c-8.835937 0-16-7.164062-16-16v-23.0625l-24-8zm-67.632812-120.71875h-76.367188v48h118.398438zm-76.367188 64v37.335938l20 26.664062h89.519532c5.582031-3.699218 11.878906-6.179687 18.480468-7.28125v-56.71875zm-32-80h104v-8c0-4.417968-3.582031-8-8-8h-88c-4.417968 0-8 3.582032-8 8zm0 64h16v-48h-16zm-84 0h68v-32h-44zm-93.503906 40h9.503906c4.417969 0 8-3.582031 8-8v-16h-1.503906c-8.835937 0-16 7.164063-16 16zm0 40h31.023438c16.042968-10.667968 36.917968-10.667968 52.960937 0h125.519531l-14.398437-19.199218c-1.039063-1.386719-1.601563-3.070313-1.601563-4.800782v-40h-160v16c0 13.253906-10.746093 24-24 24h-9.503906zm16 16h-30.496094c-4.417968 0-8 3.582032-8 8 0 4.417969 3.582032 8 8 8h24.71875c.953126-5.636718 2.910157-11.054687 5.777344-16zm73.503906 24c0-17.671875-14.328124-32-32-32-17.671874 0-32 14.328125-32 32s14.328126 32 32 32c17.671876 0 32-14.328125 32-32zm214.496094-24h-204.992187c2.867187 4.945313 4.824219 10.363282 5.777343 16h193.4375c.953126-5.636718 2.910157-11.054687 5.777344-16zm73.503906 24c0-17.671875-14.328124-32-32-32-17.671874 0-32 14.328125-32 32s14.328126 32 32 32c17.671876 0 32-14.328125 32-32zm48-16c0-4.417968-3.582031-8-8-8h-30.496093c2.867187 4.945313 4.824219 10.363282 5.777343 16h24.71875c4.417969 0 8-3.582031 8-8zm-192-56h24c4.417969 0 8-3.582031 8-8 0-4.417968-3.582031-8-8-8h-24c-4.417968 0-8 3.582032-8 8 0 4.417969 3.582032 8 8 8zm0 0" fill="url(#a)"/></svg>